<svg width="52.000000" height="45.000000" viewBox="0 0 52 45" fill="none" xmlns="http://www.w3.org/2000/svg" xmlns:xlink="http://www.w3.org/1999/xlink">
	<desc>
			Created with Pixso.
	</desc>
	<defs/>
	<mask id="mask5_503" mask-type="alpha" maskUnits="userSpaceOnUse" x="4.631104" y="20.546875" width="46.408936" height="4.424988">
		<path id="Vector" d="M6.1 22.52C6.07 22.5 6.03 22.48 6 22.47C6.11 22.45 6.16 22.45 6.1 22.52Z" fill="#FFFFFF" fill-opacity="1.000000" fill-rule="nonzero"/>
		<path id="Vector" d="M4.63 22.34C5.09 22.28 5.56 22.32 6 22.47C5.63 22.55 4.62 22.9 4.63 22.34Z" fill="#FFFFFF" fill-opacity="1.000000" fill-rule="nonzero"/>
		<path id="Vector" d="M5.96 23.44L5.51 23.29C5.83 23.12 5.72 23.39 5.96 23.44Z" fill="#FFFFFF" fill-opacity="1.000000" fill-rule="nonzero"/>
		<path id="Vector" d="M5.91 22.91L5.98 22.7L6.19 22.9L5.91 22.91Z" fill="#FFFFFF" fill-opacity="1.000000" fill-rule="nonzero"/>
		<path id="Vector" d="M25.05 21.07C25.02 20.97 25.03 20.86 25.07 20.76L25.05 21.07Z" fill="#FFFFFF" fill-opacity="1.000000" fill-rule="nonzero"/>
		<path id="Vector" d="M25.73 21.76C25.8 21.78 25.87 21.8 25.95 21.81C25.91 21.82 25.87 21.82 25.83 21.81C25.79 21.8 25.76 21.78 25.73 21.76Z" fill="#FFFFFF" fill-opacity="1.000000" fill-rule="nonzero"/>
		<path id="Vector" d="M24.23 21.1L24.44 21.07C24.38 21.1 24.3 21.11 24.23 21.1Z" fill="#FFFFFF" fill-opacity="1.000000" fill-rule="nonzero"/>
		<path id="Vector" d="M14.58 21.82C14.43 21.67 14.28 21.54 14.17 21.45C14.57 21.28 14.53 21.62 14.58 21.82Z" fill="#FFFFFF" fill-opacity="1.000000" fill-rule="nonzero"/>
		<path id="Vector" d="M29.15 24.14L29.24 23.97C29.28 24.05 29.28 24.12 29.15 24.14Z" fill="#FFFFFF" fill-opacity="1.000000" fill-rule="nonzero"/>
		<path id="Vector" d="M25.46 23.92C25.47 23.84 25.5 23.77 25.54 23.7C25.55 23.71 25.57 23.73 25.59 23.74L25.46 23.92Z" fill="#FFFFFF" fill-opacity="1.000000" fill-rule="nonzero"/>
		<path id="Vector" d="M23.6 21.37L23.59 21.39L23.45 21.29C23.55 21.25 23.6 21.28 23.6 21.37Z" fill="#FFFFFF" fill-opacity="1.000000" fill-rule="nonzero"/>
		<path id="Vector" d="M30.32 24.27C30.37 24.38 30.41 24.51 30.42 24.63C30.36 24.6 30.32 24.54 30.3 24.47C30.28 24.4 30.29 24.33 30.32 24.27Z" fill="#FFFFFF" fill-opacity="1.000000" fill-rule="nonzero"/>
		<path id="Vector" d="M25.94 21.81L25.94 21.81L25.91 21.81C25.92 21.8 25.93 21.81 25.94 21.81Z" fill="#FFFFFF" fill-opacity="1.000000" fill-rule="nonzero"/>
		<path id="Vector" d="M24.23 23.74C24.31 23.77 24.38 23.79 24.47 23.82C24.45 23.83 24.42 23.84 24.4 23.84C24.38 23.84 24.35 23.84 24.33 23.83C24.31 23.82 24.29 23.81 24.27 23.8C24.25 23.78 24.24 23.76 24.23 23.74Z" fill="#FFFFFF" fill-opacity="1.000000" fill-rule="nonzero"/>
		<path id="Vector" d="M14.52 21.73L14.64 21.86C14.61 21.86 14.58 21.84 14.56 21.82C14.53 21.8 14.52 21.76 14.52 21.73Z" fill="#FFFFFF" fill-opacity="1.000000" fill-rule="nonzero"/>
		<path id="Vector" d="M7.51 22.08C7.67 22.08 7.68 22.2 7.68 22.31C7.6 22.26 7.54 22.18 7.51 22.08Z" fill="#FFFFFF" fill-opacity="1.000000" fill-rule="nonzero"/>
		<path id="Vector" d="M50.11 22.33L50.17 22.34C50.16 22.34 50.15 22.34 50.14 22.34C50.13 22.34 50.12 22.34 50.11 22.33Z" fill="#FFFFFF" fill-opacity="1.000000" fill-rule="nonzero"/>
		<path id="Vector" d="M44.24 21.73C44.22 21.69 44.2 21.64 44.19 21.6C44.26 21.55 44.26 21.63 44.24 21.73Z" fill="#FFFFFF" fill-opacity="1.000000" fill-rule="nonzero"/>
		<path id="Vector" d="M41.18 24.97L40.5 24.55C40.44 24.71 40.09 24.75 40.28 24.93L40.04 24.66L40.02 24.84C38.72 25.14 37.99 23.8 36.59 24.56L36.6 24.62L35.99 24.19C35.84 24.23 35.73 24.55 35.49 24.66C35.67 24.32 35.09 24.61 35.03 24.32C34.82 24.46 34.97 24.55 34.99 24.68C34.22 24.99 33.81 24.43 33.01 24.65C33.44 24.41 33.91 24.24 34.4 24.14C33.84 23.93 33.66 24.27 33.04 24.16L33.3 24.31C32.85 24.81 32.38 24.02 32.14 24.58C31.77 24.5 31.57 23.93 31.08 24.02L31.16 24.52L30.73 24.52L30.8 24.18C30.75 24.17 30.7 24.17 30.65 24.2C30.61 24.22 30.57 24.26 30.55 24.31C30.34 23.92 29.88 24.12 29.55 23.82L29.46 23.99C29.44 23.95 29.42 23.91 29.41 23.87C29.26 24.16 28.96 24.05 28.88 24.32C28.99 24.39 29.26 24.54 29.28 24.36C29.53 24.7 28.83 24.55 28.61 24.55C28.88 24.39 28.59 24.35 28.47 24.28C28.44 24.32 28.48 24.35 28.48 24.41C28.04 24.59 28.09 23.74 27.68 24.33L27.69 24.01L27.32 24.24C27.43 23.61 26.88 24.18 26.96 23.59C26.6 23.57 26.93 23.95 26.81 23.88C26.44 24.01 25.97 23.43 25.79 23.73C25.54 23.51 25.19 23.65 24.97 23.52L24.89 23.79C24.77 23.72 24.65 23.59 24.51 23.64C24.5 23.68 24.51 23.72 24.53 23.75C24.13 23.62 23.7 23.56 23.28 23.57C23.26 23.75 23.23 23.86 23.46 23.92C23.01 24.18 22.52 23.58 21.91 23.68L21.92 23.81L21.65 23.59C21.7 23.68 21.63 23.77 21.61 23.88C21.03 23.94 20.34 23.93 20.18 23.39C20.3 23.52 19.85 23.71 20.13 23.93C19.64 23.57 18.9 23.65 18.29 23.56L18.31 23.54L18.08 23.41L18.05 23.46L18.21 23.55C17.98 23.52 17.76 23.43 17.59 23.27C17.51 23.44 17.39 23.59 17.24 23.7C17.31 23.37 16.44 24.01 16.22 23.64C16.16 23.73 16.33 23.7 16.2 23.82C15.43 23.77 14.37 23.38 13.38 23.65C13.45 23 12.63 23.18 12.2 22.88C11.99 23.27 12.44 23.08 12.51 23.36C12.25 23.28 12.35 23.84 11.92 23.54C11.92 23.61 11.89 23.65 12 23.65C11.72 23.68 12.16 23.17 11.7 23.3L11.63 23.57L11.44 23.22C10.52 23.4 9.8 23.21 8.96 23.51C8.93 23.45 8.97 23.31 9.09 23.24C8.74 23.25 8.42 22.81 7.96 23.1L8.04 23.2C7.35 23.45 7.46 22.89 6.72 22.81C6.9 22.78 7.25 22.97 7.35 22.65C7.33 22.45 6.93 22.49 6.77 22.65L6.91 22.29C6.97 22.51 7.26 22.48 7.46 22.58C7.41 22.55 7.41 22.48 7.4 22.41C7.57 22.52 7.83 22.51 8.08 22.6L7.68 22.64C7.77 22.99 8.34 22.62 8.46 22.75C8.53 22.41 8.28 22.46 8.58 22.18C9.25 22.05 8.88 22.53 9.42 22.82L9.29 22.94C9.48 22.98 9.56 23.33 9.89 23.07C9.94 22.85 9.72 22.86 9.63 22.75C9.72 22.61 9.9 23.14 10.16 22.91C10.05 22.6 9.6 22.48 9.27 22.49C9.33 22.39 9.36 22.27 9.34 22.16C10.25 22.52 11.23 22.66 12.2 22.57C11.79 22.16 12.42 22.57 12.4 22.12C12.4 22.43 12.76 22.13 13 22.26C13.18 21.92 12.53 22 12.8 21.77C13.28 21.84 13.83 22.45 14.5 22.32C14.49 22.19 14.34 22.17 14.33 22.11C14.74 22.2 15.13 22.98 15.54 22.45C15.38 22.26 15.18 22.06 15 21.87C15.1 21.86 15.2 21.81 15.27 21.74L15.17 21.5C15.71 21.42 15.45 22.03 15.67 22.34L16.06 21.99C16.31 21.88 16.59 21.86 16.85 21.95C17.11 22.03 17.33 22.21 17.46 22.45C17.57 22.44 18 22.43 17.9 22.12C17.7 21.7 17.63 21.41 17.05 21.4C16.9 21.7 17.41 21.73 17.24 21.76C17.01 21.7 16.53 21.93 16.39 21.67L17.01 21.7C17.1 21.25 16.75 21.68 16.69 21.46C16.94 21.09 17.2 21.49 17.51 21.28L17.47 21.26C17.95 21.34 17.9 21.25 18.36 21.44C18.3 21.85 18.13 21.7 17.86 21.86C18.66 21.86 19.59 22.62 20.56 21.91L20.15 21.56C20.47 21.49 20.91 21.86 21 21.34C20.62 21.51 20.84 21.19 20.68 21.1L20.65 21.15C20.61 21.13 20.5 21.06 20.6 20.99C20.84 21.23 21.13 21.41 21.45 21.53C21.35 21.42 21.66 21.25 21.71 21.17C21.97 21.26 21.66 21.4 21.61 21.56C21.75 21.58 21.93 21.87 22.12 21.59C22.39 21.36 21.91 21.35 21.89 21.15L22.65 21.52L22.65 21.45C22.66 21.47 22.67 21.5 22.69 21.51C22.71 21.53 22.73 21.54 22.76 21.55C22.78 21.56 22.81 21.56 22.84 21.56C22.86 21.56 22.89 21.55 22.91 21.54C23.04 21.35 22.85 21.31 22.71 21.36C23.22 21.09 23.35 21.96 23.86 21.4L24.07 21.56C24.1 21.52 24.17 21.43 24.13 21.41L24.33 21.58C24.75 21.76 24.54 21.2 24.71 21.11L24.69 21.11C24.84 21.05 24.99 20.88 24.9 20.84L25.33 21.08L25.32 21.07C25.43 21.4 26.12 21.48 25.97 22.08C26.11 22.03 26.24 21.92 26.2 21.84C26.55 21.88 26.23 21.37 26.78 21.47C26.8 21.35 26.73 21.38 26.65 21.33C26.81 21.32 26.86 21.36 26.87 21.43C26.89 21.35 26.92 21.27 26.97 21.2C26.92 21.42 27.17 21.37 27.31 21.33L27.19 20.95C27.28 21.13 27.36 21.17 27.61 21.12L27.51 20.88C27.88 20.96 27.42 21.39 27.94 21.19L27.46 21.41C27.94 21.5 27.66 21.97 27.83 22.2C28.27 22.58 29.07 21.9 29.28 22.66C29.4 22.41 29.36 22.32 29.56 22.12C29.42 22.1 29.3 22.03 29.2 21.93C29.11 21.83 29.05 21.7 29.03 21.56C28.48 21.18 28.65 22.49 28.09 21.9C28.2 21.59 28.42 21.59 28.58 21.74C28.66 21.47 28.46 21.3 28.34 21.16C28.71 21.31 29.36 20.98 29.6 21.02C29.69 21.16 29.96 21.37 30.12 21.29C30.05 21.49 30.64 21.65 30.34 22.07C30.75 22.19 30.75 21.49 31.06 21.98C30.98 21.62 31.39 21.73 31.29 21.42C31.07 21.73 30.73 21.22 30.56 20.99L31.23 20.81C31.05 20.9 31.22 21.13 31.3 21.17L31.45 20.87C31.37 21.59 32.67 20.38 32.78 21.21C32.59 21.17 32.36 21.42 32.36 21.03C31.95 21.24 32.31 21.57 32.08 21.82C32.58 22.11 33.54 21.66 34.03 22.2C33.97 21.98 33.68 22 33.73 21.71C34.22 21.55 34.61 22.23 35.06 22.5L35.06 22.12C35.42 22.46 35.27 21.98 35.71 22.12C35.68 22.17 35.58 22.3 35.69 22.3C36.09 22.28 35.8 21.99 36.09 21.9C36.43 22.48 36.41 21.51 36.95 21.83L36.94 21.7C37.35 21.95 38.1 21.44 38.63 21.38C38.57 21.47 38.21 21.37 38.16 21.74L38.79 21.85C38.85 21.76 39.14 21.74 39.01 21.54C38.93 21.49 38.83 21.56 38.76 21.58L38.9 21.4C39.46 21.6 38.73 21.94 38.65 22.28C39 22.17 39.03 22.51 39.25 22.51C39.43 22.17 38.92 22.12 39.28 21.76C39.52 21.58 40.09 21.86 40.22 22.2C40.73 21.42 41.5 22.08 41.67 21.48C41.63 21.52 41.69 21.75 41.86 21.66L41.81 21.5C42.33 21.24 42.11 22.07 42.43 21.94C42.45 21.82 42.38 21.78 42.36 21.64C43 21.52 43.11 22.43 43.8 22.08C43.79 22.01 43.79 21.94 43.72 21.96C43.71 21.89 43.82 21.9 43.98 22.06L43.71 22.28C43.84 23 44.62 22 45.07 22.21C45.06 22.08 44.69 22.05 44.93 21.87C45.25 21.88 45.03 22.64 45.5 22.29C45.35 22.2 45.5 21.84 45.35 21.76C45.61 21.72 45.84 21.52 45.86 21.8C45.9 21.78 45.93 21.75 45.96 21.71C45.99 21.68 46 21.63 46.01 21.59C46.12 21.81 46.41 21.67 46.6 21.61L46.59 21.48C46.72 22.2 47.1 21.53 47.5 21.59L47.48 21.38C47.63 21.48 47.83 21.73 48.2 21.44L48.11 21.19C48.3 21.38 48.85 21.01 48.95 21.4C49.05 21.33 48.84 20.94 49.24 20.93C49.29 21.09 49.55 21.25 49.71 21.03C49.74 20.92 49.73 20.78 49.59 20.89C49.52 20.91 49.56 20.94 49.57 21.01L49.48 20.82C49.82 20.65 49.67 21.01 50.02 20.9C50.12 20.77 49.97 20.67 49.96 20.54L51.04 21.02C51.01 21.2 50.84 21.29 50.89 21.51L50.47 21.57C50.2 21.86 50.6 21.91 50.75 22.01L50.46 22.02C50.44 22.05 50.44 22.09 50.46 22.11L50.25 22.09C50.71 22.51 49.54 22.61 50.06 22.94C49.99 22.91 49.92 22.85 49.86 22.78C49.81 22.71 49.77 22.63 49.75 22.55C49.49 22.45 49.51 22.65 49.37 22.77L49.72 23.05C49.1 22.92 49.7 23.36 49.18 23.55C48.7 23.31 48.16 24.21 47.87 24.22C47.33 24.14 48.17 23.89 47.87 23.7C47.58 23.65 47.67 23.9 47.46 23.96L47.43 23.55C47.1 23.48 47.32 23.94 47.16 23.78C46.82 24.02 47.21 23.93 47.2 24.25C47.15 24.16 46.89 23.99 46.72 24.15C46.7 24.26 47.06 24.29 46.81 24.33C46 24.09 45.68 24.53 44.93 24.45L44.94 24.65C44.87 24.61 44.82 24.51 44.73 24.58L44.73 24.71C44.3 24.56 43.85 24.47 43.39 24.46L43.59 24.71L43.21 24.41L43.17 24.77C43.1 24.41 42.51 24.62 42.11 24.51L42.05 24.73L41.82 24.59L41.87 24.75C41.62 24.72 41.41 24.34 41.07 24.51C41.28 24.45 41.24 24.81 41.18 24.97ZM30.66 24.11L30.55 24.09C30.56 24.11 30.58 24.12 30.6 24.12C30.62 24.12 30.65 24.12 30.66 24.11L30.84 24.14C30.87 23.92 30.77 24.06 30.66 24.11ZM13.79 23.37L14.08 23.41C14.02 23.43 13.82 23.32 13.87 23.48C13.84 23.46 13.73 23.46 13.79 23.37ZM31.6 21.91L31.5 21.73L31.35 21.95L31.6 21.91ZM34.01 21.93L33.78 21.79L33.75 21.84L33.98 21.98L34.01 21.93ZM36.87 24.02C36.8 23.62 36.62 24.03 36.46 23.86C36.45 23.84 36.44 23.83 36.42 23.82C36.43 23.84 36.45 23.85 36.46 23.86C36.54 24 36.58 24.35 36.87 24.02L36.87 24.02ZM31.37 23.69C31.32 23.91 31.61 23.96 31.66 24.11C31.8 24.07 31.67 23.87 31.66 23.73C31.73 23.71 31.77 23.73 31.85 23.78C31.91 23.3 31.57 23.93 31.37 23.69ZM25.56 23.36L25.77 23.54L25.69 23.56L25.56 23.36ZM24.32 23.53C24.26 23.54 24.2 23.52 24.14 23.5C24.08 23.47 24.04 23.43 24 23.38C23.97 23.33 23.95 23.27 23.94 23.2C23.94 23.14 23.95 23.08 23.98 23.02C24.2 23.08 24.56 23.04 24.63 23.33C24.53 23.15 24.6 23.75 24.32 23.53L24.32 23.53ZM34.47 23.35C34.32 23.26 34.2 22.74 33.79 23.01L34.02 23.15L33.95 23.17L33.97 23.37C34.03 22.83 34.32 23.33 34.47 23.35ZM22.07 23.14C22.01 23.13 21.96 23.1 21.91 23.07C21.86 23.03 21.82 22.99 21.79 22.93C21.76 22.88 21.74 22.82 21.73 22.76C21.73 22.7 21.74 22.64 21.76 22.58C21.67 22.79 22.06 23 22.26 23.18C22.18 23.13 22.14 23.11 22.07 23.14ZM22.28 22.75C22.42 22.71 22.43 22.46 22.63 22.64C22.55 22.84 22.53 23.33 22.91 23.17C22.73 22.81 22.74 22.63 22.43 22.46L22.28 22.75ZM22.7 23.48L23.18 23.32C23.04 22.89 22.91 23.32 22.7 23.48L22.55 23.53C22.58 23.54 22.6 23.53 22.63 23.52C22.66 23.52 22.68 23.5 22.7 23.48L22.7 23.48ZM19.53 23.41L19.62 23.52C19.59 23.58 19.6 23.63 19.73 23.65L19.62 23.52C19.68 23.4 19.87 23.27 19.53 23.41L19.53 23.41ZM22.29 23.45L21.88 23.41C22.02 23.36 22.3 23.27 22.29 23.45ZM20.37 23.13C20.18 23.13 19.99 23.15 19.8 23.18C19.88 23.29 20.28 23.33 20.37 23.12L20.37 23.13ZM10.88 23.04L11.06 22.77L10.8 22.75L10.88 23.04ZM13.66 22.61L13.81 22.63L13.9 22.49L13.66 22.61ZM16.83 22.35C16.81 22.35 16.78 22.37 16.76 22.38C16.75 22.4 16.73 22.42 16.72 22.44C16.38 22.63 15.99 22.71 15.6 22.67C15.43 22.84 15.75 23.07 15.84 23.18C15.87 22.26 16.24 23.21 16.57 22.89C16.52 22.8 16.35 22.83 16.33 22.7C16.38 22.66 16.44 22.63 16.5 22.62C16.57 22.61 16.63 22.62 16.69 22.64C16.7 22.71 16.73 22.76 16.77 22.76C16.77 22.73 16.76 22.71 16.75 22.69C16.73 22.67 16.71 22.65 16.69 22.64C16.68 22.58 16.69 22.51 16.72 22.45C16.76 22.42 16.8 22.39 16.83 22.35ZM20.71 22.3C20.75 22.39 20.58 22.49 20.78 22.6C20.8 22.55 20.81 22.49 20.8 22.44C20.79 22.39 20.76 22.34 20.71 22.3C20.7 22.27 20.66 22.25 20.56 22.22C20.62 22.23 20.67 22.26 20.71 22.3ZM20.62 21.82L21.06 22.19L20.93 21.99L21.24 22.16C21.24 22.09 21.22 22.02 21.19 21.96C21.15 21.9 21.1 21.84 21.03 21.81C20.97 21.77 20.9 21.76 20.83 21.76C20.75 21.76 20.68 21.78 20.62 21.82ZM21.95 22.06L21.4 21.94L21.4 21.99L21.37 21.98L21.42 22.21L21.4 21.99L21.95 22.06ZM26.64 22.52L26.92 22.49C26.78 22.37 26.59 22.31 26.4 22.32C26.84 21.69 26.48 22.43 27.03 22.18C26.46 22.18 26.77 21.79 26.86 21.54C26.89 21.9 27.68 21.69 27.28 22.44C27.12 22.29 26.69 22.99 26.64 22.52ZM30.34 22.32L30.67 22.38L30.31 22.36L30.34 22.32ZM39.97 22.18C39.94 21.84 39.4 22.15 39.38 22.33C39.47 22.19 39.72 22.22 39.97 22.18ZM43.43 22.29C43.22 22.36 43.04 21.93 42.86 22.33L43.23 22.49C43.33 22.36 43.45 22.5 43.43 22.29ZM45.97 22.25L46 22.66L45.89 22.59L45.97 22.25ZM45.65 21.79C45.72 21.77 45.98 21.87 45.85 22.04L45.65 21.79ZM48.22 22.17L48.16 21.8L48.34 21.78L48.22 22.17ZM47.99 22.41C47.95 22.37 47.95 22.28 47.96 22.19C47.89 22.09 47.75 22.05 47.58 22.15C47.56 22.33 47.69 22.22 47.77 22.27C47.7 22.29 47.56 22.4 47.45 22.33C47.67 22.02 47.57 22.01 47.65 21.74C48.09 21.59 47.98 21.93 47.96 22.19C47.98 22.22 47.99 22.26 48 22.3C48 22.34 48 22.37 47.99 22.41L47.99 22.41ZM46.56 22.49C46.61 22.45 46.65 22.4 46.68 22.34C46.96 22.24 47.24 22.15 47.05 21.83L46.8 21.86C46.91 21.87 46.88 21.91 46.88 21.98C46.68 22.11 46.63 21.88 46.51 21.81C46.55 21.94 46.78 22.11 46.68 22.33C46.61 22.36 46.54 22.39 46.47 22.42C46.44 22.38 46.4 22.35 46.31 22.46L46.32 22.53C46.36 22.48 46.41 22.45 46.47 22.42C46.49 22.47 46.51 22.52 46.56 22.49ZM48.12 22.69C48.12 22.76 48.06 22.84 48.1 22.94L48.21 23.01C48.42 22.88 48.26 22.71 48.12 22.69L48.12 22.69ZM40.82 22.44C40.79 22.41 40.39 22.43 40.45 22.2L40.26 22.54C40.47 22.47 40.6 22.75 40.5 22.81C40.69 22.61 40.81 22.75 40.82 22.43L40.82 22.44ZM30.92 22.34C31 22.45 31.55 22.2 31.52 22.63C31.8 22.16 31.19 22.25 30.92 22.34L30.92 22.34ZM30.75 22.81C30.71 22.8 30.67 22.79 30.63 22.79C30.5 22.7 30.59 22.36 30.29 22.54C30.33 22.63 30.47 22.52 30.51 22.61C30.44 22.82 30.49 22.78 30.62 22.79C30.64 22.8 30.66 22.81 30.68 22.81C30.7 22.82 30.73 22.81 30.75 22.81L30.75 22.81ZM36.26 23.2L35.97 23.22L35.86 22.9L36.26 23.2ZM38.84 23.61L38.62 23.54L38.72 23.47C38.74 23.39 38.82 23.27 38.77 23.21C38.73 23.21 38.69 23.19 38.66 23.18C38.68 23.17 38.7 23.18 38.72 23.18C38.73 23.19 38.75 23.2 38.77 23.21C38.93 23.24 39.15 23.22 39.11 23.45C39.07 23.36 38.75 23.36 38.73 23.54L38.84 23.61ZM44.28 23.91C44.16 23.84 44.16 23.78 43.92 23.95C43.98 23.99 44.04 24 44.11 23.99C44.17 23.99 44.23 23.96 44.28 23.91ZM37.42 23.84C37.44 23.66 37.12 23.73 37.28 23.5L37.42 23.46C37.21 23.53 37.42 23.01 37.08 23.25L37.26 23.23C37.02 23.34 37.43 23.59 37.08 23.71C36.95 23.75 37.25 23.93 37.43 23.84L37.42 23.84ZM44.57 24.42C44.39 24.37 44.56 23.9 44.18 24.12C44.41 24.19 44.26 24.61 44.57 24.42ZM39.17 24.58L39.14 24.62L38.92 24.48L38.95 24.44L39.17 24.58Z" fill="#FFFFFF" fill-opacity="1.000000" fill-rule="nonzero"/>
		<path id="Vector" d="M43.13 21.98C43.16 21.96 43.2 21.95 43.24 21.95C43.28 21.95 43.32 21.96 43.36 21.98C43.28 21.99 43.2 21.99 43.13 21.98Z" fill="#FFFFFF" fill-opacity="1.000000" fill-rule="nonzero"/>
		<path id="Vector" d="M30.01 21.13C30 21.16 29.98 21.19 29.96 21.22C29.94 21.24 29.91 21.26 29.88 21.28C29.91 21.22 29.95 21.16 30.01 21.13Z" fill="#FFFFFF" fill-opacity="1.000000" fill-rule="nonzero"/>
		<path id="Vector" d="M29.41 20.99L29.37 20.99L29.35 20.96L29.41 20.99Z" fill="#FFFFFF" fill-opacity="1.000000" fill-rule="nonzero"/>
		<path id="Vector" d="M7.85 21.68C7.76 21.3 8.04 21.61 8.18 21.6C8.04 21.61 7.92 21.88 7.85 21.68Z" fill="#FFFFFF" fill-opacity="1.000000" fill-rule="nonzero"/>
		<path id="Vector" d="M8.84 22.28C8.81 22.22 8.76 22.17 8.71 22.14C8.66 22.1 8.6 22.08 8.53 22.07C8.63 22.05 8.72 22.09 8.84 22.28Z" fill="#FFFFFF" fill-opacity="1.000000" fill-rule="nonzero"/>
		<path id="Vector" d="M7.95 22.15C8.13 22.07 8.33 22.04 8.53 22.07C8.38 22.09 8.23 22.24 7.95 22.15Z" fill="#FFFFFF" fill-opacity="1.000000" fill-rule="nonzero"/>
		<path id="Vector" d="M11.91 22.06C11.79 21.83 11.41 21.97 11.41 21.97C12.21 21.72 11.37 21.52 11.35 21.35C11.79 21.41 11.73 21.71 11.91 22.06Z" fill="#FFFFFF" fill-opacity="1.000000" fill-rule="nonzero"/>
		<path id="Vector" d="M12.87 22.14C12.79 22.15 12.72 22.16 12.65 22.2C12.68 22.17 12.72 22.15 12.75 22.14C12.79 22.14 12.83 22.14 12.87 22.14Z" fill="#FFFFFF" fill-opacity="1.000000" fill-rule="nonzero"/>
		<path id="Vector" d="M13.2 21.91C13.44 21.95 13.47 22.22 13.54 22.42C13.19 22.62 13.09 22.2 12.87 22.14C13.05 22.13 13.22 22.16 13.2 21.91Z" fill="#FFFFFF" fill-opacity="1.000000" fill-rule="nonzero"/>
		<path id="Vector" d="M17.44 21.11C17.39 21.09 17.24 21.09 17.28 20.94L17.71 20.93C17.86 21.01 17.53 21.08 17.44 21.11Z" fill="#FFFFFF" fill-opacity="1.000000" fill-rule="nonzero"/>
		<path id="Vector" d="M18.48 21.63C18.81 21.65 18.73 21.27 18.88 21.35L18.74 21.86L18.48 21.63Z" fill="#FFFFFF" fill-opacity="1.000000" fill-rule="nonzero"/>
		<path id="Vector" d="M17.95 23.59L17.86 23.54L17.97 23.56L17.95 23.59Z" fill="#FFFFFF" fill-opacity="1.000000" fill-rule="nonzero"/>
		<path id="Vector" d="M19.9 21.31L19.8 20.75C20.05 20.88 19.95 21.33 19.9 21.31Z" fill="#FFFFFF" fill-opacity="1.000000" fill-rule="nonzero"/>
		<path id="Vector" d="M20.92 20.97L20.76 20.8L21.36 20.96L20.92 20.97Z" fill="#FFFFFF" fill-opacity="1.000000" fill-rule="nonzero"/>
		<path id="Vector" d="M22.06 21.15L22.14 21.03L22.54 21.17L22.06 21.15Z" fill="#FFFFFF" fill-opacity="1.000000" fill-rule="nonzero"/>
		<path id="Vector" d="M35.19 21.61C35.13 22.09 34.49 21.88 34.26 22.01C34.55 21.41 34.76 22.21 35.19 21.61Z" fill="#FFFFFF" fill-opacity="1.000000" fill-rule="nonzero"/>
		<path id="Vector" d="M42.47 22.19L41.85 22.06C42.4 21.89 41.99 22.06 42.47 22.19Z" fill="#FFFFFF" fill-opacity="1.000000" fill-rule="nonzero"/>
	</mask>
	<g mask="url(#mask5_503)">
		<path id="Vector" d="M50.61 20.68C49.81 22.48 46.01 23.38 44.51 23.48C43.82 23.58 42.92 23.08 42.22 23.18C41.82 23.28 41.62 23.98 41.12 23.88C40.72 23.88 40.42 23.78 40.02 23.68C38.42 23.28 36.62 23.08 34.92 23.28C34.02 23.38 33.22 22.88 32.42 22.68C31.82 22.58 31.02 22.88 30.32 22.78C29.22 22.58 28.13 22.88 27.13 22.78C25.43 22.68 23.83 22.68 22.13 22.58C20.83 22.48 19.53 22.78 18.33 22.88C17.13 22.98 15.93 22.98 14.73 22.98C12.34 22.98 9.94 22.88 7.54 " stroke="#202020" stroke-opacity="1.000000" stroke-width="3.998648" stroke-linejoin="round" stroke-dasharray="41.9858 41.9858"/>
	</g>
	<mask id="mask5_545" mask-type="alpha" maskUnits="userSpaceOnUse" x="0.825439" y="12.545898" width="29.222412" height="16.624634">
		<path id="Vector" d="M27.82 28.52C27.84 28.54 27.87 28.57 27.9 28.59C27.8 28.59 27.75 28.57 27.82 28.52Z" fill="#FFFFFF" fill-opacity="1.000000" fill-rule="nonzero"/>
		<path id="Vector" d="M29.08 29.05C28.65 29 28.25 28.84 27.9 28.59C28.23 28.6 29.19 28.46 29.08 29.05Z" fill="#FFFFFF" fill-opacity="1.000000" fill-rule="nonzero"/>
		<path id="Vector" d="M28.12 27.59L28.48 27.85C28.17 27.95 28.32 27.69 28.12 27.59Z" fill="#FFFFFF" fill-opacity="1.000000" fill-rule="nonzero"/>
		<path id="Vector" d="M28.07 28.15L27.96 28.36L27.81 28.1L28.07 28.15Z" fill="#FFFFFF" fill-opacity="1.000000" fill-rule="nonzero"/>
		<path id="Vector" d="M5.19 24.71C5.2 24.82 5.17 24.93 5.11 25.03L5.19 24.71Z" fill="#FFFFFF" fill-opacity="1.000000" fill-rule="nonzero"/>
		<path id="Vector" d="M4.62 23.5C4.56 23.45 4.5 23.41 4.44 23.38C4.5 23.38 4.54 23.42 4.62 23.5Z" fill="#FFFFFF" fill-opacity="1.000000" fill-rule="nonzero"/>
		<path id="Vector" d="M6.12 24.87L5.94 24.85C6 24.84 6.07 24.84 6.12 24.87Z" fill="#FFFFFF" fill-opacity="1.000000" fill-rule="nonzero"/>
		<path id="Vector" d="M17.48 27C17.59 27.19 17.69 27.36 17.77 27.48C17.38 27.56 17.49 27.22 17.48 27Z" fill="#FFFFFF" fill-opacity="1.000000" fill-rule="nonzero"/>
		<path id="Vector" d="M2.55 23.88L2.62 23.7C2.66 23.77 2.68 23.84 2.55 23.88Z" fill="#FFFFFF" fill-opacity="1.000000" fill-rule="nonzero"/>
		<path id="Vector" d="M5.59 20.69C5.56 20.77 5.52 20.84 5.47 20.9C5.46 20.88 5.44 20.87 5.43 20.85L5.59 20.69Z" fill="#FFFFFF" fill-opacity="1.000000" fill-rule="nonzero"/>
		<path id="Vector" d="M6.97 24.73L6.98 24.72L7.08 24.86C6.99 24.87 6.95 24.83 6.97 24.73Z" fill="#FFFFFF" fill-opacity="1.000000" fill-rule="nonzero"/>
		<path id="Vector" d="M4.09 23.82C4.16 23.92 4.21 24.03 4.24 24.15C4.21 24.14 4.18 24.12 4.16 24.1C4.13 24.08 4.11 24.05 4.1 24.02C4.09 23.99 4.08 23.95 4.08 23.92C4.08 23.89 4.08 23.85 4.09 23.82Z" fill="#FFFFFF" fill-opacity="1.000000" fill-rule="nonzero"/>
		<path id="Vector" d="M4.41 23.37L4.41 23.37L4.44 23.38C4.43 23.38 4.42 23.38 4.41 23.37Z" fill="#FFFFFF" fill-opacity="1.000000" fill-rule="nonzero"/>
		<path id="Vector" d="M6.92 21.28C6.86 21.23 6.8 21.19 6.74 21.13C6.76 21.12 6.78 21.12 6.8 21.13C6.82 21.14 6.84 21.15 6.86 21.16C6.88 21.17 6.89 21.19 6.9 21.21C6.91 21.23 6.92 21.25 6.92 21.28Z" fill="#FFFFFF" fill-opacity="1.000000" fill-rule="nonzero"/>
		<path id="Vector" d="M17.48 27C17.45 26.94 17.42 26.89 17.4 26.84C17.46 26.86 17.48 26.92 17.48 27Z" fill="#FFFFFF" fill-opacity="1.000000" fill-rule="nonzero"/>
		<path id="Vector" d="M26.5 28.64C26.36 28.61 26.37 28.48 26.39 28.36C26.45 28.44 26.49 28.54 26.5 28.64Z" fill="#FFFFFF" fill-opacity="1.000000" fill-rule="nonzero"/>
		<path id="Vector" d="M29.73 14.05L29.79 14.02C29.78 14.03 29.77 14.04 29.76 14.04C29.75 14.04 29.74 14.05 29.73 14.05Z" fill="#FFFFFF" fill-opacity="1.000000" fill-rule="nonzero"/>
		<path id="Vector" d="M23.86 15.83C23.82 15.8 23.8 15.77 23.78 15.73C23.84 15.67 23.86 15.74 23.86 15.83Z" fill="#FFFFFF" fill-opacity="1.000000" fill-rule="nonzero"/>
		<path id="Vector" d="M18.27 21.73L17.26 21.43C17.22 21.64 16.75 21.8 17.05 21.97L16.67 21.7L16.68 21.93C14.99 22.7 13.8 21.23 12.08 22.55L12.1 22.63L11.22 22.25C11.04 22.35 10.94 22.77 10.64 22.97C10.83 22.5 10.11 23.02 9.98 22.67C9.74 22.89 9.95 22.97 9.99 23.13C9.04 23.72 8.41 23.13 7.38 23.62C7.92 23.2 8.5 22.86 9.13 22.61C8.36 22.5 8.18 22.97 7.34 22.99L7.71 23.12C7.19 23.85 6.45 22.99 6.23 23.75C5.73 23.74 5.38 23.08 4.75 23.33L4.93 23.92L4.37 24.03L4.41 23.59C4.34 23.59 4.27 23.61 4.21 23.65C4.16 23.69 4.11 23.75 4.09 23.82C3.77 23.38 3.19 23.76 2.71 23.47L2.62 23.7C2.58 23.66 2.55 23.61 2.53 23.57C2.38 23.97 1.97 23.91 1.9 24.27C2.06 24.32 2.44 24.45 2.43 24.22C2.81 24.58 1.87 24.56 1.59 24.62C1.92 24.35 1.53 24.37 1.37 24.31C1.33 24.38 1.39 24.4 1.4 24.48C1.35 24.52 1.28 24.54 1.21 24.55L2.76 19.1C3.08 19.24 2.9 20.05 3.47 19.46L3.37 19.89L3.87 19.7C3.54 20.53 4.36 19.94 4.08 20.71C4.49 20.85 4.23 20.23 4.34 20.36C4.81 20.31 5.17 21.25 5.47 20.9C5.69 21.28 6.14 21.21 6.35 21.45L6.53 21.11C6.64 21.23 6.74 21.46 6.91 21.44C6.93 21.39 6.94 21.33 6.93 21.28C7.34 21.59 7.82 21.81 8.32 21.94C8.39 21.69 8.46 21.55 8.22 21.39C8.8 21.18 9.19 22.16 9.92 22.22L9.95 22.03L10.2 22.42C10.17 22.28 10.27 22.18 10.33 22.03C11.01 22.14 11.8 22.37 11.84 23.15C11.73 22.93 12.31 22.82 12.06 22.43C12.51 23.08 13.39 23.19 14.07 23.51L14.04 23.53L14.27 23.78L14.32 23.73L14.16 23.55C14.43 23.67 14.65 23.87 14.8 24.13C14.94 23.93 15.12 23.76 15.33 23.64C15.15 24.09 16.34 23.47 16.49 24.05C16.59 23.94 16.38 23.92 16.56 23.81C17.43 24.11 18.56 24.97 19.78 24.89C19.52 25.76 20.51 25.77 20.94 26.3C21.29 25.83 20.71 25.96 20.71 25.55C20.99 25.74 21.03 24.95 21.45 25.49C21.46 25.39 21.51 25.34 21.39 25.31C21.73 25.35 21.06 25.92 21.63 25.88L21.8 25.53L21.91 26.07C23.04 26.09 23.82 26.57 24.88 26.41C24.88 26.48 24.85 26.55 24.81 26.61C24.77 26.67 24.72 26.71 24.65 26.74C25.07 26.82 25.32 27.52 25.93 27.26L25.86 27.09C26.74 26.95 26.46 27.69 27.3 28.02C27.08 28 26.72 27.65 26.51 28.05C26.48 28.33 26.96 28.39 27.19 28.22L26.93 28.67C26.92 28.35 26.57 28.32 26.37 28.12C26.43 28.17 26.41 28.27 26.39 28.37C26.16 28.19 25.91 28.03 25.65 27.91L26.12 27.96C26.12 27.45 25.35 27.8 25.24 27.59C25.07 28.03 25.37 28.03 24.95 28.32C24.13 28.31 24.7 27.76 24.14 27.2L24.33 27.08C24.12 26.98 24.13 26.46 23.67 26.72C23.55 27.02 23.81 27.07 23.88 27.24C23.73 27.4 23.68 26.63 23.3 26.87C23.36 27.08 23.47 27.28 23.64 27.42C23.8 27.57 24.01 27.67 24.23 27.7C24.12 27.82 24.06 27.98 24.06 28.14C23.06 27.55 22.06 26.73 20.84 26.72C21.21 27.41 20.59 26.67 20.48 27.28C20.57 26.86 20.06 27.16 19.82 26.92C19.52 27.33 20.3 27.4 19.93 27.64C19.38 27.39 18.92 26.4 18.1 26.37C18.08 26.56 18.25 26.63 18.24 26.72C17.79 26.46 17.56 25.29 16.93 25.88C17.06 26.19 17.23 26.53 17.39 26.84C17.33 26.82 17.22 26.84 17.04 26.93L17.09 27.3C16.44 27.25 16.91 26.48 16.74 26L16.19 26.35C16.02 26.38 15.85 26.38 15.68 26.34C15.52 26.3 15.36 26.23 15.22 26.13C15.08 26.04 14.96 25.91 14.88 25.76C14.79 25.62 14.73 25.46 14.7 25.29C14.57 25.26 14.07 25.14 14.1 25.6C14.2 26.24 14.2 26.66 14.88 26.85C15.13 26.49 14.55 26.29 14.76 26.31C15 26.46 15.63 26.28 15.71 26.69L15 26.46C14.76 27.05 15.3 26.56 15.3 26.88C14.91 27.31 14.72 26.68 14.3 26.87L14.34 26.91C13.81 26.66 13.84 26.79 13.36 26.39C13.55 25.86 13.7 26.12 14.06 25.98C13.13 25.72 12.29 24.39 10.96 25.06L11.32 25.67C10.93 25.67 10.53 25.02 10.27 25.7C10.76 25.59 10.41 25.96 10.57 26.13L10.62 26.08C10.66 26.12 10.77 26.25 10.64 26.31C10.43 25.92 10.15 25.58 9.81 25.3C9.89 25.49 9.49 25.62 9.4 25.71C9.12 25.51 9.52 25.42 9.63 25.22C9.47 25.14 9.35 24.69 9.05 25C8.68 25.23 9.22 25.4 9.19 25.69L8.41 24.95L8.4 25.04C8.38 24.9 8.26 24.78 8.12 24.84C7.92 25.05 8.13 25.17 8.3 25.15C7.63 25.36 7.74 24.12 6.98 24.72L6.79 24.43C6.74 24.48 6.64 24.59 6.68 24.63L6.5 24.32C6.07 23.95 6.14 24.78 5.91 24.85L5.94 24.86C5.74 24.89 5.53 25.07 5.61 25.16L5.19 24.69L5.19 24.71C5.16 24.22 4.4 23.88 4.75 23.11C4.58 23.13 4.4 23.24 4.41 23.37C4.02 23.2 4.24 24 3.64 23.69C3.57 23.84 3.66 23.83 3.74 23.91C3.56 23.88 3.51 23.81 3.52 23.72C3.47 23.82 3.41 23.91 3.33 24C3.46 23.71 3.16 23.69 2.98 23.71L3 24.27C3 24.21 2.99 24.16 2.97 24.11C2.94 24.06 2.91 24.02 2.87 23.98C2.83 23.94 2.78 23.92 2.73 23.9C2.68 23.89 2.62 23.88 2.57 23.89L2.61 24.26C2.2 24.02 2.87 23.58 2.21 23.69L2.83 23.54C2.31 23.26 2.77 22.7 2.65 22.34C2.41 21.93 1.87 22.04 1.5 21.9L1.56 21.71C1.69 21.68 1.83 21.71 1.94 21.77C2.06 21.84 2.15 21.95 2.19 22.08C2.31 21.74 2.24 21.64 2.46 21.33C2.29 21.34 2.12 21.29 1.98 21.19C1.84 21.08 1.73 20.93 1.69 20.77L1.67 20.75L1.08 22.84C1.58 23.49 1.79 21.69 2.26 22.66C2.03 23.06 1.78 22.99 1.64 22.72C1.59 22.87 1.57 23.02 1.59 23.17C1.6 23.33 1.66 23.47 1.74 23.6C1.46 23.44 1.14 23.37 0.82 23.42L1.74 20.17C1.94 20.06 2.15 19.98 2.36 19.94C2.5 20.1 2.88 20.28 3.08 20.14C3.02 20.42 3.82 20.46 3.49 21.07C4.04 21.1 3.94 20.23 4.41 20.77C4.26 20.34 4.81 20.37 4.64 20C4.39 20.45 3.87 19.9 3.62 19.66L4.47 19.26C4.25 19.42 4.51 19.66 4.62 19.69L4.77 19.28C4.79 20.2 6.29 18.35 6.57 19.36C6.32 19.35 6.06 19.72 6 19.24C5.49 19.6 6.01 19.93 5.75 20.3C6.44 20.54 7.64 19.73 8.36 20.27C8.25 20.01 7.88 20.11 7.89 19.73C8.51 19.41 9.12 20.15 9.77 20.37L9.69 19.91C10.21 20.23 9.94 19.69 10.54 19.74C10.51 19.8 10.41 20 10.55 19.97C11.06 19.84 10.65 19.54 11 19.36C11.54 20 11.37 18.8 12.12 19.05L12.08 18.89C12.67 19.09 13.56 18.25 14.25 18.03C14.18 18.16 13.69 18.14 13.69 18.6L14.53 18.58C14.59 18.45 14.96 18.35 14.77 18.13C14.66 18.09 14.53 18.2 14.45 18.25L14.59 17.99C15.35 18.1 14.46 18.71 14.41 19.15C14.85 18.92 14.95 19.33 15.23 19.27C15.42 18.8 14.74 18.88 15.16 18.34C15.44 18.05 16.22 18.24 16.46 18.61C16.98 17.5 18.12 18.08 18.21 17.28C18.18 17.35 18.3 17.61 18.5 17.45L18.41 17.27C19.02 16.78 18.91 17.87 19.29 17.61C19.3 17.46 19.19 17.43 19.15 17.27C19.95 16.91 20.3 17.97 21.11 17.3C21.09 17.22 21.07 17.14 20.98 17.19C20.96 17.11 21.1 17.07 21.34 17.21L21.04 17.57C21.4 18.4 22.17 16.9 22.8 16.97C22.75 16.82 22.27 16.92 22.54 16.62C22.96 16.5 22.87 17.49 23.4 16.87C23.17 16.83 23.26 16.35 23.05 16.32C23.37 16.16 23.61 15.83 23.72 16.15C23.76 16.11 23.79 16.06 23.82 16.01C23.84 15.95 23.85 15.89 23.85 15.84C24.05 16.04 24.39 15.75 24.61 15.6L24.56 15.45C24.95 16.24 25.22 15.27 25.75 15.15L25.66 14.92C25.82 15 26.01 15.01 26.18 14.96C26.35 14.91 26.5 14.79 26.59 14.63L26.39 14.39C26.7 14.51 27.24 13.81 27.52 14.18C27.62 14.05 27.21 13.73 27.69 13.5C27.74 13.55 27.79 13.58 27.86 13.6C27.92 13.62 27.98 13.62 28.05 13.6C28.11 13.59 28.17 13.55 28.21 13.51C28.26 13.47 28.3 13.41 28.32 13.35C28.3 13.21 28.23 13.07 28.12 13.27C28.04 13.33 28.09 13.33 28.12 13.4L27.94 13.25C28.3 12.86 28.26 13.34 28.64 13.03C28.7 12.82 28.48 12.81 28.41 12.67C28.41 12.67 28.79 12.65 29.17 12.61L29.93 12.54C29.99 12.74 29.81 12.94 29.99 13.15L29.49 13.47C29.28 13.95 29.81 13.75 30.04 13.76L29.69 13.95C29.68 14 29.69 14.04 29.73 14.05L29.45 14.15C30.24 14.3 28.78 15.17 29.61 15.17C29.5 15.19 29.39 15.18 29.29 15.15C29.18 15.11 29.09 15.04 29.02 14.96C28.65 15.01 28.76 15.22 28.62 15.42L29.2 15.51C28.33 15.76 29.33 15.86 28.72 16.39C27.97 16.44 27.62 17.71 27.23 17.9C26.46 18.12 27.5 17.37 27.02 17.33C26.6 17.43 26.82 17.67 26.56 17.85L26.36 17.41C25.89 17.5 26.35 17.9 26.08 17.8C25.71 18.25 26.21 17.96 26.31 18.31C26.2 18.26 26.07 18.24 25.94 18.26C25.82 18.29 25.71 18.36 25.62 18.45C25.62 18.59 26.13 18.44 25.81 18.61C24.62 18.75 24.32 19.42 23.26 19.66L23.34 19.89C23.23 19.87 23.14 19.78 23.02 19.9L23.08 20.06C22.43 20.07 21.79 20.15 21.16 20.32L21.5 20.54L20.9 20.33L20.94 20.78C20.76 20.37 20 20.85 19.43 20.85L19.41 21.14L19.07 21.05L19.18 21.23C18.83 21.28 18.46 20.88 18.03 21.21C18.29 21.06 18.31 21.51 18.27 21.73ZM4.21 23.54L4.06 23.55C4.11 23.59 4.16 23.58 4.21 23.54L4.45 23.53C4.46 23.26 4.34 23.46 4.21 23.54ZM19.23 25.15L18.9 25.01C18.98 25 19.18 25.2 19.16 24.97C19.2 25.01 19.32 25.04 19.23 25.15ZM5.1 20.55L4.95 20.35L4.78 20.68L5.1 20.55ZM8.27 19.96L7.95 19.85L7.92 19.91L8.24 20.02L8.27 19.96ZM12.35 21.8C12.19 21.33 12.02 21.88 11.78 21.71C11.77 21.69 11.75 21.68 11.73 21.67C11.74 21.68 11.76 21.7 11.78 21.71C11.91 21.87 12.03 22.29 12.35 21.8ZM5.08 22.83C5.05 23.13 5.44 23.11 5.53 23.29C5.71 23.2 5.5 22.98 5.47 22.81C5.56 22.77 5.61 22.78 5.72 22.82C5.73 22.22 5.38 23.09 5.08 22.83L5.08 22.83ZM5.61 21.48L5.44 21.17L5.53 21.16L5.61 21.48ZM7.1 21.65C7.18 21.67 7.25 21.72 7.31 21.78C7.37 21.84 7.41 21.91 7.44 21.99C7.46 22.07 7.46 22.15 7.45 22.23C7.43 22.32 7.4 22.39 7.34 22.46C7.11 22.3 6.68 22.25 6.69 21.83C6.74 22.1 6.85 21.26 7.1 21.65ZM9.09 21.61C8.88 21.54 8.64 20.92 8.15 21.37L8.46 21.47L8.38 21.52L8.43 21.77C8.43 21.08 8.9 21.62 9.09 21.61ZM9.57 22.9C9.64 22.95 9.7 23 9.75 23.07C9.8 23.14 9.83 23.21 9.85 23.29C9.87 23.37 9.87 23.46 9.86 23.54C9.85 23.62 9.82 23.7 9.77 23.76C9.93 23.51 9.55 23.09 9.37 22.79C9.45 22.87 9.49 22.91 9.57 22.9ZM9.21 23.36C9.04 23.38 8.95 23.72 8.78 23.41C8.94 23.16 9.11 22.49 8.62 22.59C8.72 23.14 8.65 23.38 8.95 23.72L9.21 23.36ZM8.95 22.23L8.36 22.3C8.38 22.94 8.67 22.39 8.95 22.23L9.14 22.21C9.11 22.2 9.08 22.19 9.04 22.2C9.01 22.2 8.98 22.21 8.95 22.23ZM12.59 23.33L12.52 23.15C12.57 23.07 12.58 22.99 12.42 22.93L12.52 23.15C12.41 23.29 12.15 23.42 12.59 23.33ZM9.42 22.4L9.87 22.58C9.7 22.61 9.35 22.65 9.42 22.41L9.42 22.4ZM11.54 23.46C11.76 23.52 11.99 23.55 12.22 23.57C12.15 23.39 11.7 23.21 11.54 23.46ZM22.52 26.47L22.23 26.79L22.52 26.89L22.52 26.47ZM19.16 26.22L18.99 26.15L18.84 26.31L19.16 26.22ZM15.4 25.62C15.43 25.62 15.46 25.61 15.49 25.59C15.52 25.58 15.54 25.55 15.56 25.52C16 25.38 16.49 25.39 16.93 25.56C17.16 25.39 16.86 24.96 16.79 24.79C16.49 26.03 16.34 24.61 15.86 24.96C15.89 25.09 16.11 25.11 16.09 25.3C16.02 25.34 15.94 25.36 15.86 25.36C15.78 25.35 15.7 25.32 15.64 25.26C15.65 25.17 15.64 25.09 15.59 25.09C15.59 25.12 15.59 25.15 15.6 25.18C15.61 25.21 15.62 25.24 15.64 25.26C15.63 25.36 15.6 25.44 15.56 25.52C15.5 25.54 15.45 25.58 15.4 25.62L15.4 25.62ZM10.89 24.48C10.87 24.35 11.1 24.26 10.9 24.04C10.86 24.11 10.83 24.18 10.83 24.26C10.83 24.34 10.85 24.41 10.89 24.48C10.9 24.52 10.94 24.57 11.05 24.63C10.98 24.6 10.93 24.54 10.9 24.48L10.89 24.48ZM10.85 25.17L10.46 24.52L10.55 24.83L10.24 24.5C10.21 24.59 10.2 24.68 10.22 24.77C10.24 24.87 10.29 24.95 10.35 25.02C10.41 25.09 10.49 25.14 10.58 25.17C10.67 25.19 10.77 25.19 10.86 25.17L10.85 25.17ZM9.39 24.41L10 24.76L10 24.69L10.05 24.71L10.05 24.39L10.01 24.69L9.39 24.41ZM4.12 22.28L3.78 22.23C3.84 22.33 3.92 22.42 4.02 22.49C4.11 22.56 4.22 22.61 4.33 22.64C3.63 23.36 4.27 22.46 3.56 22.62C4.22 22.8 3.74 23.24 3.57 23.56C3.64 23.05 2.67 23.09 3.36 22.18C3.5 22.44 4.21 21.63 4.12 22.29L4.12 22.28ZM3.51 21.38L3.95 21.38L3.47 21.45L3.51 21.38ZM16.12 18.66C16.03 18.24 15.36 18.78 15.37 19.01C15.47 18.82 15.81 18.78 16.12 18.66ZM20.68 17.7C20.41 17.86 20.08 17.39 19.93 17.94L20.46 18.01C20.56 17.81 20.75 17.94 20.68 17.7ZM23.99 16.63L24.16 17.09L23.99 17.06L23.99 16.63ZM23.43 16.24C23.52 16.18 23.88 16.19 23.77 16.45L23.43 16.24ZM26.88 15.44L26.66 15.07L26.88 14.95L26.88 15.44ZM26.67 15.84C26.6 15.81 26.57 15.72 26.55 15.61C26.43 15.53 26.23 15.56 26.04 15.76C26.08 15.98 26.21 15.79 26.33 15.8C26.24 15.85 26.11 16.05 25.94 16.03C26.12 15.56 25.98 15.61 26 15.26C26.5 14.86 26.49 15.31 26.55 15.61C26.59 15.63 26.62 15.67 26.64 15.7C26.66 15.74 26.67 15.79 26.68 15.83L26.67 15.84ZM24.84 16.64C24.89 16.57 24.92 16.49 24.94 16.4C25.27 16.16 25.6 15.92 25.25 15.63L24.95 15.8C25.09 15.75 25.06 15.82 25.09 15.89C24.86 16.14 24.72 15.9 24.56 15.87C24.65 16.01 25 16.09 24.94 16.4C24.85 16.47 24.76 16.53 24.69 16.6C24.63 16.56 24.57 16.55 24.5 16.72L24.53 16.79C24.57 16.72 24.62 16.65 24.69 16.6C24.74 16.64 24.79 16.7 24.84 16.64ZM26.95 16.07C26.98 16.14 26.93 16.28 27.02 16.36L27.2 16.37C27.42 16.11 27.15 16.02 26.95 16.07ZM17.28 18.73C17.23 18.71 16.72 18.85 16.75 18.56L16.56 19.02C16.82 18.88 17.05 19.18 16.93 19.29C17.15 18.98 17.33 19.12 17.28 18.73ZM4.27 21.26C4.4 21.39 5.09 20.93 5.11 21.47C5.41 20.81 4.63 21.08 4.28 21.26L4.27 21.26ZM4.12 21.9C4.07 21.89 4.01 21.9 3.96 21.91C3.78 21.82 3.85 21.37 3.48 21.68C3.55 21.78 3.71 21.61 3.78 21.71C3.73 21.99 3.78 21.93 3.96 21.91C3.99 21.92 4.02 21.92 4.04 21.92C4.07 21.92 4.1 21.91 4.12 21.9L4.12 21.9ZM11.42 20.95L11.04 21.05L10.86 20.69L11.42 20.95ZM14.88 20.75L14.58 20.73L14.7 20.62C14.71 20.51 14.79 20.34 14.72 20.28C14.67 20.28 14.62 20.28 14.57 20.27C14.64 20.25 14.69 20.26 14.72 20.28C14.94 20.27 15.23 20.18 15.22 20.48C15.14 20.38 14.72 20.47 14.72 20.7L14.88 20.75ZM22.21 19.31C22.04 19.27 22.02 19.2 21.74 19.5C21.83 19.52 21.92 19.51 22.01 19.48C22.09 19.44 22.16 19.39 22.21 19.31ZM13.06 21.43C13.05 21.2 12.65 21.37 12.82 21.05L12.99 20.96C12.73 21.1 12.91 20.4 12.51 20.79L12.74 20.72C12.44 20.92 13.03 21.12 12.59 21.35C12.41 21.45 12.84 21.59 13.06 21.43ZM22.76 19.78C22.49 19.8 22.6 19.17 22.15 19.59C22.47 19.58 22.39 20.15 22.76 19.78ZM15.5 21.86L15.47 21.92L15.14 21.82L15.18 21.75L15.5 21.86Z" fill="#FFFFFF" fill-opacity="1.000000" fill-rule="nonzero"/>
		<path id="Vector" d="M22.82 16.39C22.89 16.34 22.97 16.31 23.05 16.32C22.98 16.35 22.9 16.38 22.82 16.39Z" fill="#FFFFFF" fill-opacity="1.000000" fill-rule="nonzero"/>
		<path id="Vector" d="M3.19 19.98C3.18 20.01 3.17 20.04 3.15 20.07C3.13 20.1 3.11 20.13 3.08 20.15C3.1 20.08 3.14 20.02 3.19 19.98Z" fill="#FFFFFF" fill-opacity="1.000000" fill-rule="nonzero"/>
		<path id="Vector" d="M2.39 19.93L2.36 19.94L2.34 19.91L2.39 19.93Z" fill="#FFFFFF" fill-opacity="1.000000" fill-rule="nonzero"/>
		<path id="Vector" d="M26.12 28.97C26.13 29.39 25.94 29 25.81 28.98C25.94 29 26.09 28.75 26.12 28.97Z" fill="#FFFFFF" fill-opacity="1.000000" fill-rule="nonzero"/>
		<path id="Vector" d="M25.37 28.12C25.38 28.19 25.41 28.24 25.45 28.29C25.49 28.34 25.54 28.39 25.59 28.41C25.51 28.41 25.43 28.34 25.37 28.12Z" fill="#FFFFFF" fill-opacity="1.000000" fill-rule="nonzero"/>
		<path id="Vector" d="M26.12 28.47C25.94 28.51 25.76 28.49 25.59 28.41C25.72 28.42 25.9 28.3 26.12 28.47Z" fill="#FFFFFF" fill-opacity="1.000000" fill-rule="nonzero"/>
		<path id="Vector" d="M22.63 27.62C22.69 27.89 23.04 27.83 23.04 27.83C22.29 27.9 23 28.3 22.98 28.49C22.6 28.31 22.72 28.02 22.63 27.62Z" fill="#FFFFFF" fill-opacity="1.000000" fill-rule="nonzero"/>
		<path id="Vector" d="M21.8 27.3C21.87 27.31 21.94 27.31 22 27.29C21.98 27.31 21.94 27.32 21.9 27.32C21.87 27.32 21.83 27.31 21.8 27.3Z" fill="#FFFFFF" fill-opacity="1.000000" fill-rule="nonzero"/>
		<path id="Vector" d="M21.47 27.46C21.26 27.36 21.29 27.07 21.27 26.85C21.62 26.72 21.63 27.18 21.81 27.3C21.64 27.26 21.49 27.2 21.47 27.46Z" fill="#FFFFFF" fill-opacity="1.000000" fill-rule="nonzero"/>
		<path id="Vector" d="M13.95 27.02C13.99 27.06 14.11 27.09 14.06 27.24L13.67 27.15C13.56 27.02 13.86 27.03 13.95 27.02Z" fill="#FFFFFF" fill-opacity="1.000000" fill-rule="nonzero"/>
		<path id="Vector" d="M12.85 25.95C12.56 25.85 12.55 26.27 12.44 26.14L12.67 25.65L12.85 25.95Z" fill="#FFFFFF" fill-opacity="1.000000" fill-rule="nonzero"/>
		<path id="Vector" d="M14.09 23.47L14.16 23.54L14.06 23.5L14.09 23.47Z" fill="#FFFFFF" fill-opacity="1.000000" fill-rule="nonzero"/>
		<path id="Vector" d="M11.19 26.06L11.16 26.67C10.97 26.46 11.15 26.02 11.19 26.06Z" fill="#FFFFFF" fill-opacity="1.000000" fill-rule="nonzero"/>
		<path id="Vector" d="M9.88 26.13L9.98 26.34L9.5 26.03L9.88 26.13Z" fill="#FFFFFF" fill-opacity="1.000000" fill-rule="nonzero"/>
		<path id="Vector" d="M8.61 25.48L8.51 25.59L8.19 25.34L8.61 25.48Z" fill="#FFFFFF" fill-opacity="1.000000" fill-rule="nonzero"/>
		<path id="Vector" d="M9.9 19.29C9.9 19.75 9.25 19.68 9.03 19.84C9.24 19.22 9.55 19.93 9.9 19.29Z" fill="#FFFFFF" fill-opacity="1.000000" fill-rule="nonzero"/>
		<path id="Vector" d="M22.23 16.76L21.59 16.83C22.1 16.51 21.73 16.79 22.23 16.76Z" fill="#FFFFFF" fill-opacity="1.000000" fill-rule="nonzero"/>
	</mask>
	<g mask="url(#mask5_545)">
		<path id="Vector" d="M29.33 12.38C29.42 13.08 29.23 13.88 28.73 14.38C27.23 15.68 25.63 16.88 23.93 17.78C23.43 18.08 22.83 18.28 22.33 18.28C22.13 18.28 21.33 18.68 21.23 18.68C20.53 18.88 20.73 18.78 20.13 18.88C19.53 18.98 18.83 18.88 18.23 18.98C18.03 18.98 17.83 19.08 17.63 19.08C17.13 19.18 16.73 19.18 16.23 19.28C16.13 19.28 16.03 19.28 15.93 19.38C15.83 19.38 15.73 19.48 15.63 19.58C15.53 19.58 15.33 19.58 15.23 19.58C15.13 19.58 14.93 19.68 14.83 19.78C14.83 19.78 14.93 19.68 14.93 19.58C11.64 20.38 8.44 20.58 5.14 21.08C4.44 21.18 3.14 20.68 2.44 20.78C0.64 24.08 3.34 22.78 4.14 22.48C4.34 22.38 4.54 22.58 4.74 22.78C4.84 22.88 4.04 22.58 5.54 23.08C5.74 23.08 6.44 22.68 6.64 22.68C7.44 22.98 7.04 23.48 7.84 23.78C8.34 23.98 9.64 24.58 10.14 24.58C12.84 24.88 15.23 24.98 17.73 25.88C19.03 26.38 20.23 26.48 21.53 26.88C21.83 26.98 22.13 27.08 22.53 27.08C22.73 27.08 22.93 27.08 23.13 27.08C25.63 26.88 27.63 28.88 30.02 " stroke="#202020" stroke-opacity="1.000000" stroke-width="3.998648" stroke-linejoin="round" stroke-dasharray="61.979 61.979"/>
	</g>
</svg>
